<?xml version="1.0" encoding="UTF-8"?>
<svg width="24px" height="24px" viewBox="0 0 24 24" version="1.1" xmlns="http://www.w3.org/2000/svg">
    <g stroke="none" stroke-width="1" fill="none" fill-rule="evenodd">
        <path d="M12,2 C6.48,2 2,6.48 2,12 C2,13.82 2.5,15.53 3.35,17 L2,22 L7,20.65 C8.47,21.5 10.18,22 12,22 C17.52,22 22,17.52 22,12 C22,6.48 17.52,2 12,2 Z M16.57,15.43 C16.37,16.18 15.59,16.77 14.83,16.87 C14.23,16.95 13.12,17 12,17 C10.88,17 9.77,16.95 9.17,16.87 C8.41,16.77 7.63,16.18 7.43,15.43 C7.23,14.68 7.23,13.93 7.43,13.18 C7.63,12.43 8.41,11.84 9.17,11.74 C9.77,11.66 10.88,11.61 12,11.61 C13.12,11.61 14.23,11.66 14.83,11.74 C15.59,11.84 16.37,12.43 16.57,13.18 C16.77,13.93 16.77,14.68 16.57,15.43 Z" fill="#FFFFFF"/>
    </g>
</svg> 